<?xml version="1.0" encoding="utf-8"?>
<!-- Generator: Adobe Illustrator 16.0.0, SVG Export Plug-In . SVG Version: 6.00 Build 0)  -->
<!DOCTYPE svg PUBLIC "-//W3C//DTD SVG 1.1//EN" "http://www.w3.org/Graphics/SVG/1.1/DTD/svg11.dtd">
<svg version="1.1" id="Layer_1" xmlns:sketch="http://www.bohemiancoding.com/sketch/ns"
	 xmlns="http://www.w3.org/2000/svg" xmlns:xlink="http://www.w3.org/1999/xlink" x="0px" y="0px" width="178px" height="45px"
	 viewBox="0 0 178 45" enable-background="new 0 0 178 45" xml:space="preserve">
<title>Imported Layers Copy 8</title>
<desc>Created with Sketch.</desc>
<g>
	<path fill="#1E3B6B" d="M23.724,9.209c-0.615-5.822-4.119-9.175-10.473-9.2c-7.14,0-11.747,4.842-11.747,12.167
		c0,6.857,4.262,12.161,11.747,12.161c6.78,0,10.579-4.979,10.579-9.661h-7.012c-0.421,2.18-1.358,3.865-3.763,3.865
		c-3.34,0-4.412-3.245-4.412-6.365c0-3.126,1.071-6.379,4.412-6.379c2.955,0,3.604,2.562,3.729,3.413H23.724z"/>
	<path fill="#1E3B6B" d="M42.171,6.896h-6.42v8.919c0,2.706-1.459,3.251-2.57,3.251c-1.882,0-2.103-1.365-2.103-3.318V6.896h-6.431
		v11.594c0,3.866,2.763,5.718,5.782,5.718c2.562,0,4.283-0.88,5.486-2.569h0.06v2.149h6.195V6.896z"/>
	<path fill="#1E3B6B" d="M49.279,15.358c0-2.014,0.512-4.189,2.818-4.189c2.3,0,2.819,2.175,2.819,4.189
		c0,1.987-0.519,4.171-2.819,4.171C49.791,19.529,49.279,17.345,49.279,15.358 M43.094,29.25h6.427v-7.319h0.063
		c0.971,1.43,2.692,2.276,4.604,2.276c5.65,0,7.175-4.812,7.175-8.779c0-4.225-2.308-8.947-7.074-8.947
		c-3.15,0-4.12,1.205-4.926,2.275H49.29V6.905h-6.196V29.25z"/>
	<path fill="#1E3B6B" d="M61.354,23.787h6.423v-6.667c0-3.612,1.364-5.111,3.888-5.111c1.299,0,1.887,0.194,2.536,0.427v-5.7
		c-0.618-0.165-1.237-0.261-1.884-0.261c-2.338,0-3.703,1.115-4.733,3.125h-0.062V6.896h-6.168V23.787z"/>
	<path fill="#1E3B6B" d="M92.645,6.896h-6.422v8.919c0,2.706-1.463,3.251-2.566,3.251c-1.876,0-2.109-1.365-2.109-3.318V6.896
		h-6.423v11.594c0,3.866,2.761,5.718,5.775,5.718c2.568,0,4.281-0.88,5.483-2.569h0.066v2.149h6.196V6.896z"/>
	<path fill="#1E3B6B" d="M93.575,23.787h6.41v-9.144c0-1.759,0.559-3.018,2.182-3.018c1.942,0,2.104,1.431,2.104,3.018v9.144h6.423
		v-9.144c0-1.759,0.557-3.018,2.175-3.018c1.948,0,2.108,1.431,2.108,3.018v9.144h6.422V12.203c0-2.727-1.456-5.728-5.771-5.728
		c-4.187,0-5.483,2.446-5.742,2.636c-0.773-1.689-2.72-2.636-4.539-2.636c-2.338,0-4.223,0.718-5.515,2.673h-0.066V6.896h-6.189
		V23.787z"/>
	<path fill="#F99F2A" d="M121.879,23.787h2.366l2.794-7.222h10.544l2.812,7.222h2.38l-9.087-23.232h-2.472L121.879,23.787z
		 M132.354,2.771l4.486,11.905h-9.117L132.354,2.771z"/>
	<polygon fill="#F99F2A" points="143.705,23.819 145.925,23.819 145.925,12.754 157.018,12.754 157.018,10.866 145.925,10.866 
		145.925,2.474 158.406,2.474 158.406,0.593 143.705,0.593 	"/>
	<path fill="#F99F2A" d="M159.835,23.819h2.208v-9.956h8.071c4.149,0,6.886-2.442,6.886-6.644c0-4.191-2.736-6.626-6.886-6.626
		h-10.279V23.819z M162.043,2.474h7.585c3.06,0,5.158,1.555,5.158,4.746c0,3.192-2.099,4.751-5.158,4.751h-7.585V2.474z"/>
	<g>
		<path fill="#1E3B6B" d="M7.476,39.854c0,1.63-1.271,2.756-2.992,2.756c-1.721,0-2.981-1.126-2.981-2.756v-4.251h0.84v4.222
			c0,1.238,0.913,2.1,2.142,2.1c1.239,0,2.141-0.861,2.141-2.1v-4.222h0.851V39.854z"/>
		<path fill="#1E3B6B" d="M9.229,37.507h0.655l0.103,0.912c0.338-0.656,1.003-1.033,1.793-1.033c1.106,0,1.895,0.756,1.895,1.853
			v3.249h-0.819v-3.124c0-0.76-0.542-1.293-1.312-1.293c-0.86,0-1.506,0.657-1.506,1.607v2.81H9.229V37.507z"/>
		<path fill="#1E3B6B" d="M17.118,39.465c0.348,0,0.728,0.04,1.117,0.142v-0.511c0-0.635-0.492-1.086-1.219-1.086
			c-0.533,0-1.076,0.123-1.649,0.368l-0.226-0.594c0.697-0.267,1.333-0.398,1.967-0.398c1.127,0,1.905,0.696,1.905,1.731v2.407
			c0,0.275,0.165,0.451,0.451,0.451c0.082,0,0.205-0.022,0.266-0.031l0.062,0.612c-0.164,0.034-0.348,0.053-0.533,0.053
			c-0.542,0-0.891-0.318-0.953-0.83c-0.399,0.522-1.045,0.83-1.731,0.83c-0.984,0-1.732-0.645-1.732-1.496
			C14.843,40.068,15.704,39.465,17.118,39.465z M16.77,42.017c0.861,0,1.465-0.616,1.465-1.498v-0.42
			c-0.348-0.08-0.687-0.121-1.024-0.121c-0.984,0-1.567,0.409-1.567,1.085C15.643,41.604,16.125,42.017,16.77,42.017z"/>
		<path fill="#1E3B6B" d="M25.315,37.386c0.604,0,1.198,0.185,1.762,0.562l-0.338,0.565c-0.43-0.3-0.86-0.451-1.321-0.451
			c-1.045,0-1.772,0.789-1.772,1.936c0,1.147,0.727,1.947,1.772,1.947c0.461,0,0.892-0.165,1.321-0.461l0.338,0.563
			c-0.564,0.379-1.158,0.562-1.762,0.562c-1.465,0-2.51-1.077-2.51-2.612C22.805,38.47,23.851,37.386,25.315,37.386z"/>
		<path fill="#1E3B6B" d="M30.265,37.386c1.475,0,2.53,1.075,2.53,2.611c0,1.535-1.055,2.612-2.53,2.612
			c-1.485,0-2.541-1.077-2.541-2.612C27.724,38.461,28.78,37.386,30.265,37.386z M30.265,41.953c0.994,0,1.7-0.798,1.7-1.956
			c0-1.146-0.707-1.957-1.7-1.957c-1.004,0-1.701,0.811-1.701,1.957C28.564,41.155,29.261,41.953,30.265,41.953z"/>
		<path fill="#1E3B6B" d="M34.056,37.507h0.656l0.102,0.871c0.349-0.635,0.963-0.992,1.712-0.992c0.778,0,1.403,0.418,1.639,1.084
			c0.389-0.675,1.034-1.084,1.823-1.084c1.066,0,1.813,0.736,1.813,1.77v3.332h-0.82V39.28c0-0.707-0.502-1.21-1.219-1.21
			c-0.83,0-1.424,0.635-1.424,1.527v2.89h-0.82V39.28c0-0.707-0.501-1.21-1.229-1.21c-0.83,0-1.424,0.635-1.424,1.527v2.89h-0.81
			V37.507z"/>
		<path fill="#1E3B6B" d="M43.329,37.507h0.656l0.103,0.83c0.349-0.615,0.963-0.951,1.71-0.951c1.301,0,2.244,1.084,2.244,2.611
			s-0.942,2.612-2.244,2.612c-0.717,0-1.301-0.329-1.66-0.9v2.909h-0.81V37.507z M45.604,38.051c-0.871,0-1.475,0.646-1.475,1.547
			v0.798c0,0.912,0.604,1.549,1.475,1.549c0.932,0,1.608-0.8,1.608-1.947C47.212,38.859,46.536,38.051,45.604,38.051z"/>
		<path fill="#1E3B6B" d="M51.22,39.465c0.348,0,0.727,0.04,1.117,0.142v-0.511c0-0.635-0.492-1.086-1.22-1.086
			c-0.532,0-1.075,0.123-1.649,0.368l-0.226-0.594c0.697-0.267,1.333-0.398,1.967-0.398c1.127,0,1.906,0.696,1.906,1.731v2.407
			c0,0.275,0.164,0.451,0.451,0.451c0.082,0,0.205-0.022,0.266-0.031l0.062,0.612c-0.164,0.034-0.348,0.053-0.533,0.053
			c-0.543,0-0.891-0.318-0.953-0.83c-0.399,0.522-1.044,0.83-1.731,0.83c-0.983,0-1.731-0.645-1.731-1.496
			C48.945,40.068,49.806,39.465,51.22,39.465z M50.871,42.017c0.861,0,1.465-0.616,1.465-1.498v-0.42
			c-0.349-0.08-0.687-0.121-1.024-0.121c-0.984,0-1.568,0.409-1.568,1.085C49.744,41.604,50.226,42.017,50.871,42.017z"/>
		<path fill="#1E3B6B" d="M54.806,37.507h0.655l0.103,0.912c0.339-0.656,1.004-1.033,1.794-1.033c1.106,0,1.895,0.756,1.895,1.853
			v3.249h-0.819v-3.124c0-0.76-0.543-1.293-1.312-1.293c-0.86,0-1.506,0.657-1.506,1.607v2.81h-0.81V37.507z M57.582,35.889
			c0.205,0,0.359-0.143,0.431-0.379l0.522,0.153c-0.102,0.48-0.44,0.811-0.892,0.811c-0.471,0-0.932-0.381-1.25-0.381
			c-0.205,0-0.359,0.133-0.431,0.381l-0.522-0.165c0.103-0.48,0.44-0.799,0.891-0.799C56.804,35.51,57.264,35.889,57.582,35.889z"/>
		<path fill="#1E3B6B" d="M60.862,36.842l-0.318-0.462l1.742-1.208l0.369,0.532L60.862,36.842z M60.779,37.507h0.81v4.98h-0.81
			V37.507z"/>
		<path fill="#1E3B6B" d="M65.124,39.465c0.349,0,0.728,0.04,1.117,0.142v-0.511c0-0.635-0.492-1.086-1.219-1.086
			c-0.533,0-1.076,0.123-1.649,0.368l-0.226-0.594c0.697-0.267,1.332-0.398,1.967-0.398c1.127,0,1.906,0.696,1.906,1.731v2.407
			c0,0.275,0.164,0.451,0.451,0.451c0.082,0,0.205-0.022,0.266-0.031l0.062,0.612c-0.165,0.034-0.349,0.053-0.533,0.053
			c-0.543,0-0.892-0.318-0.953-0.83c-0.399,0.522-1.045,0.83-1.731,0.83c-0.984,0-1.731-0.645-1.731-1.496
			C62.85,40.068,63.71,39.465,65.124,39.465z M64.775,42.017c0.86,0,1.465-0.616,1.465-1.498v-0.42
			c-0.348-0.08-0.687-0.121-1.025-0.121c-0.983,0-1.567,0.409-1.567,1.085C63.648,41.604,64.13,42.017,64.775,42.017z"/>
		<path fill="#1E3B6B" d="M71.385,35.603h2.592c1.343,0,2.306,0.89,2.306,2.16c0,1.262-0.963,2.152-2.306,2.152h-1.772v2.572h-0.82
			V35.603z M72.205,39.249h1.649c0.932,0,1.599-0.615,1.599-1.486c0-0.868-0.667-1.494-1.599-1.494h-1.649V39.249z"/>
		<path fill="#1E3B6B" d="M77.523,37.507h0.655l0.103,0.943c0.246-0.635,0.83-1.025,1.547-1.025c0.185,0,0.41,0.03,0.625,0.082
			l-0.092,0.666c-0.194-0.04-0.399-0.069-0.594-0.069c-0.851,0-1.434,0.684-1.434,1.689v2.694h-0.81V37.507z"/>
		<path fill="#1E3B6B" d="M81.856,35.448c0.318,0,0.543,0.226,0.543,0.543s-0.225,0.544-0.543,0.544
			c-0.328,0-0.553-0.227-0.553-0.544S81.529,35.448,81.856,35.448z M81.447,37.507h0.81v4.98h-0.81V37.507z"/>
		<path fill="#1E3B6B" d="M83.875,37.507h0.656l0.103,0.912c0.338-0.656,1.004-1.033,1.792-1.033c1.107,0,1.896,0.756,1.896,1.853
			v3.249h-0.82v-3.124c0-0.76-0.543-1.293-1.311-1.293c-0.861,0-1.506,0.657-1.506,1.607v2.81h-0.81V37.507z"/>
		<path fill="#1E3B6B" d="M92.001,37.386c0.604,0,1.199,0.185,1.762,0.562l-0.338,0.565c-0.431-0.3-0.86-0.451-1.321-0.451
			c-1.045,0-1.771,0.789-1.771,1.936c0,1.147,0.727,1.947,1.771,1.947c0.461,0,0.891-0.165,1.321-0.461l0.338,0.563
			c-0.562,0.379-1.157,0.562-1.762,0.562c-1.465,0-2.511-1.077-2.511-2.612C89.49,38.47,90.536,37.386,92.001,37.386z"/>
		<path fill="#1E3B6B" d="M95.301,35.448c0.315,0,0.542,0.226,0.542,0.543s-0.227,0.544-0.542,0.544
			c-0.328,0-0.554-0.227-0.554-0.544S94.973,35.448,95.301,35.448z M94.892,37.507h0.808v4.98h-0.808V37.507z"/>
		<path fill="#1E3B6B" d="M97.319,37.507h0.654l0.104,0.83c0.349-0.615,0.964-0.951,1.711-0.951c1.302,0,2.244,1.084,2.244,2.611
			s-0.942,2.612-2.244,2.612c-0.718,0-1.302-0.329-1.66-0.9v2.909h-0.809V37.507z M99.593,38.051c-0.871,0-1.475,0.646-1.475,1.547
			v0.798c0,0.912,0.604,1.549,1.475,1.549c0.933,0,1.609-0.8,1.609-1.947C101.202,38.859,100.525,38.051,99.593,38.051z"/>
		<path fill="#1E3B6B" d="M105.209,39.465c0.348,0,0.728,0.04,1.116,0.142v-0.511c0-0.635-0.492-1.086-1.219-1.086
			c-0.532,0-1.076,0.123-1.65,0.368l-0.225-0.594c0.696-0.267,1.332-0.398,1.967-0.398c1.127,0,1.906,0.696,1.906,1.731v2.407
			c0,0.275,0.164,0.451,0.451,0.451c0.081,0,0.204-0.022,0.266-0.031l0.062,0.612c-0.164,0.034-0.349,0.053-0.532,0.053
			c-0.544,0-0.892-0.318-0.954-0.83c-0.398,0.522-1.044,0.83-1.731,0.83c-0.982,0-1.731-0.645-1.731-1.496
			C102.934,40.068,103.795,39.465,105.209,39.465z M104.86,42.017c0.86,0,1.465-0.616,1.465-1.498v-0.42
			c-0.349-0.08-0.687-0.121-1.024-0.121c-0.984,0-1.567,0.409-1.567,1.085C103.733,41.604,104.215,42.017,104.86,42.017z"/>
		<path fill="#1E3B6B" d="M109.482,41.338c0,0.371,0.235,0.606,0.604,0.606c0.143,0,0.317-0.03,0.491-0.071l0.102,0.644
			c-0.275,0.063-0.542,0.093-0.767,0.093c-0.769,0-1.241-0.461-1.241-1.198v-6.138h0.811V41.338z"/>
	</g>
</g>
</svg>
